<svg width="184" height="52" viewBox="0 0 184 52" fill="none" xmlns="http://www.w3.org/2000/svg">
<path fill-rule="evenodd" clip-rule="evenodd" d="M15.8999 21.7045H38.184L34.5575 30.3055H12.3105L15.8999 21.7045ZM16.7089 22.9186L14.1329 29.0914H33.7518L36.3544 22.9186H16.7089Z" fill="url(#paint0_linear_17_8098)"/>
<path fill-rule="evenodd" clip-rule="evenodd" d="M26.9545 31.3431H45.1434L41.4985 40H23.3462L26.9545 31.3431ZM27.7638 32.5572L25.1677 38.7858H40.6923L43.3148 32.5572H27.7638Z" fill="url(#paint1_linear_17_8098)"/>
<path fill-rule="evenodd" clip-rule="evenodd" d="M26.9698 12H45.143L41.4982 20.6674H23.2695L26.9698 12ZM27.7716 13.2142L25.1081 19.4532H40.6916L43.3153 13.2142H27.7716Z" fill="url(#paint2_linear_17_8098)"/>
<path d="M55.9252 17.3137H64.5021V20.1565C64.5021 20.197 64.4818 20.2172 64.4414 20.2172H59.3511V23.9954H63.919V24.0197C63.919 24.1332 63.8987 24.7487 63.8582 25.8663C63.842 25.8663 63.8339 25.8785 63.8339 25.9028H64.0404V26.7774H60.08V30.3492H59.0231V30.7015H60.08V31.7828H64.5628V32.1958H64.2105V34.3339H58.853V34.7106H56.3018V28.4783H55.9252V26.2793H53.1431V25.9028H55.9252V17.3137ZM55.9495 25.9028V26.2793H57.3829V25.9028H55.9495ZM60.3473 30.908H60.5538V31.1996H60.5781C60.5781 31.1428 60.6671 31.0457 60.8453 30.908H61.0519L60.7603 31.2238L61.0762 31.6977H60.8697C60.7158 31.479 60.6307 31.3696 60.6145 31.3696C60.5741 31.3777 60.5538 31.398 60.5538 31.4305V31.6977H60.3473V30.908ZM61.3678 30.908H61.7808C61.9104 30.908 61.9995 30.985 62.048 31.1389C62.048 31.1631 62.0076 31.232 61.9266 31.3454C61.9833 31.3454 62.0237 31.4628 62.048 31.6977H61.9023C61.8618 31.6977 61.8294 31.6005 61.8051 31.4061H61.5743V31.6977H61.3678V30.908ZM62.6919 30.908H62.8013C62.9794 30.908 63.0888 31.0254 63.1293 31.2603V31.3696C63.1293 31.4344 63.101 31.5033 63.0442 31.5761V31.6126C63.101 31.6126 63.1293 31.6289 63.1293 31.6612C63.1293 31.6936 63.101 31.726 63.0442 31.7584C63.0119 31.7584 62.9794 31.726 62.9471 31.6612L62.8013 31.6977H62.6919C62.4976 31.6977 62.3883 31.5519 62.364 31.2603C62.4206 31.0254 62.5299 30.908 62.6919 30.908ZM62.5705 31.2603V31.3454C62.5705 31.4831 62.6393 31.5519 62.777 31.5519H62.8013V31.5154H62.7528V31.4912C62.7528 31.4587 62.781 31.4304 62.8377 31.4061L62.9228 31.4547C62.9228 31.4466 62.9309 31.3899 62.9471 31.2847C62.939 31.1308 62.862 31.0538 62.7163 31.0538C62.619 31.0781 62.5705 31.1469 62.5705 31.2603ZM61.5743 31.0781V31.2603H61.7808C61.8214 31.2603 61.8415 31.2401 61.8415 31.1996V31.1389C61.8415 31.0983 61.8214 31.0781 61.7808 31.0781H61.5743ZM64.3927 32.3658H64.5628V32.4023C64.5628 32.7506 64.5344 32.9246 64.4778 32.9246C64.4211 32.9246 64.3927 32.7991 64.3927 32.5481V32.3658ZM64.3927 32.949H64.5628V33.1312H64.3927V32.949ZM65.5468 17.3137H69.0578V17.4595C69.0578 18.5609 69.2603 19.3992 69.6653 19.9743C70.7181 21.8371 71.2446 22.8414 71.2446 22.987H71.281C71.281 22.898 71.9046 21.667 73.1519 19.2939C73.3058 18.6945 73.3828 18.16 73.3828 17.6903V17.3137H76.6871V17.3379C76.6871 18.974 76.3955 20.2011 75.8125 21.019C75.6828 21.27 74.7475 22.7441 73.0061 25.4411C73.3706 26.0243 73.5528 26.3361 73.5528 26.3766H72.4717V26.8746H73.8565C73.9538 26.9719 74.5774 27.9762 75.7274 29.8875V32.0742H76.3106V33.4227H75.0228V33.8359H76.3106V34.5041H72.3866V29.8875H71.9492C71.4065 28.7293 71.1352 28.1138 71.1352 28.041H71.0988C70.9449 28.4459 70.6615 29.0615 70.2483 29.8875V32.2809H69.0578V34.6862C68.4584 34.7025 68.0171 34.7106 67.7337 34.7106H65.4861L65.1945 34.6862V31.8435H65.9842V29.3529H68.0009V28.9157H67.0654V27.227H68.3289C68.3855 27.1622 68.7339 26.6155 69.3737 25.5869V25.5262C67.4785 22.6915 66.4459 21.1325 66.2758 20.8489C65.7899 20.0876 65.5468 18.9375 65.5468 17.3988V17.3137ZM69.2279 32.3658H69.4101C69.4101 32.3983 69.4466 32.5359 69.5195 32.7788H69.5559C69.6127 32.5035 69.6612 32.3658 69.7017 32.3658H69.8718V33.0462H69.7867C69.7463 33.0462 69.726 33.0259 69.726 32.9855V32.6939H69.7017C69.6369 32.9288 69.5883 33.0462 69.5559 33.0462H69.5195C69.4223 32.9571 69.3737 32.8478 69.3737 32.7181H69.3494C69.3494 32.9368 69.3291 33.0462 69.2887 33.0462H69.2279C69.1874 33.0462 69.1672 33.0259 69.1672 32.9855V32.4265C69.1753 32.3861 69.1955 32.3658 69.2279 32.3658ZM69.2279 33.2527H69.4588C69.5721 33.2527 69.6531 33.3013 69.7017 33.3985V33.5443C69.6531 33.6415 69.5721 33.6901 69.4588 33.6901H69.3494V33.8602C69.3494 33.9006 69.3291 33.9209 69.2887 33.9209H69.2279C69.1874 33.9209 69.1672 33.9006 69.1672 33.8602V33.3013C69.1753 33.2689 69.1955 33.2527 69.2279 33.2527ZM69.3494 33.3985V33.5443H69.4952C69.5356 33.5443 69.5559 33.524 69.5559 33.4836V33.4471C69.5559 33.4147 69.5356 33.3985 69.4952 33.3985H69.3494ZM82.7372 17.3137H85.665C85.7055 17.4837 86.6571 20.6505 88.5199 26.8139H89.0424V32.5359H87.8397V32.9855H89.0424V34.2125H85.8108V30.6894H81.8503V32.1836H80.2468V34.7106H77.3068V34.5405H77.5376V32.1836H78.7403V27.312H79.7365L82.7372 17.3137ZM84.11 22.2095V22.246C83.8589 23.6229 83.373 25.8015 82.6521 28.7821H85.3734V26.8139H85.1426C84.4947 23.9954 84.1707 22.4607 84.1707 22.2095H84.11ZM78.9225 26.4373H79.1897C79.1897 26.5102 79.2262 26.5709 79.2991 26.6196C79.3072 26.5467 79.3477 26.486 79.4206 26.4373H79.6271V26.4616C79.4894 26.656 79.4206 26.7654 79.4206 26.7896C79.453 26.8625 79.53 26.98 79.6514 27.1419V27.2026H79.542C79.4287 27.2026 79.3477 27.1217 79.2991 26.9597C79.1777 27.1217 79.1088 27.2026 79.0926 27.2026H78.9468C78.9064 27.2026 78.8861 27.1824 78.8861 27.1419C78.9103 27.1419 78.9913 27.0326 79.129 26.8139V26.7654C78.9913 26.5629 78.9225 26.4535 78.9225 26.4373ZM76.4564 26.7896H78.7403V27.312H76.4564V26.7896ZM89.1273 27.1662H89.747V27.312L89.3703 27.7858H89.7226C89.7551 27.7939 89.7713 27.8142 89.7713 27.8466V27.9073C89.7713 27.9478 89.7551 27.9681 89.7226 27.9681H89.1031V27.8223L89.4797 27.3484H89.1273V27.1662ZM84.6445 27.9316H84.8146V28.2231L85.1426 27.9316H85.3127V27.9681L85.0575 28.2596C85.252 28.535 85.3491 28.6889 85.3491 28.7212H85.1669C85.1507 28.7212 85.0616 28.616 84.8997 28.4054C84.8754 28.4054 84.847 28.4337 84.8146 28.4905V28.7212H84.6445V27.9316ZM89.1882 28.1989H89.5405C89.7186 28.2231 89.8077 28.3122 89.8077 28.4661L89.7226 28.6119C89.7793 28.6767 89.8077 28.7941 89.8077 28.9642V28.9886H89.6255C89.6093 28.7941 89.5809 28.697 89.5405 28.697H89.3339V28.9886H89.1882C89.1476 28.9886 89.1273 28.9683 89.1273 28.9277V28.2596C89.1354 28.2191 89.1557 28.1989 89.1882 28.1989ZM89.3339 28.3689V28.5512H89.5405C89.5809 28.5512 89.6012 28.5309 89.6012 28.4905V28.3689H89.3339ZM89.1273 29.2193H89.6862C89.7267 29.2274 89.747 29.2477 89.747 29.28V29.3409C89.747 29.3813 89.7267 29.4016 89.6862 29.4016H89.5161V30.0211H89.3096V29.4016H89.1273C89.0869 29.4016 89.0666 29.3813 89.0666 29.3409V29.28C89.0747 29.2396 89.095 29.2193 89.1273 29.2193ZM89.0666 30.252H89.2124C89.2692 30.252 89.3299 30.4181 89.3947 30.7501H89.4189C89.5161 30.4585 89.5647 30.2924 89.5647 30.252H89.7713C89.6174 30.7785 89.5202 31.0417 89.4797 31.0417H89.3096L89.0666 30.252ZM82.7372 30.9202V31.0781C82.7372 31.1105 82.5793 31.1753 82.2633 31.2725V31.3089L82.7372 31.479V31.6612L81.9961 31.394V31.1874L82.7372 30.9202ZM78.1815 31.2725H78.2786C78.3434 31.2725 78.4487 31.5397 78.5945 32.0742H78.4244C78.4244 32.0581 78.4041 31.9974 78.3637 31.8921H78.0964C78.0802 32.0135 78.0518 32.0742 78.0114 32.0742H77.8656C78.0357 31.5397 78.1409 31.2725 78.1815 31.2725ZM89.4554 31.2725H89.5405C89.7348 31.2725 89.8522 31.4102 89.8928 31.6855C89.8361 31.9609 89.7105 32.0986 89.5161 32.0986C89.2408 32.05 89.1031 31.9123 89.1031 31.6855C89.1435 31.4102 89.261 31.2725 89.4554 31.2725ZM89.3096 31.6612V31.6855C89.3096 31.7908 89.3582 31.8718 89.4554 31.9286H89.5405C89.6376 31.8718 89.6862 31.7908 89.6862 31.6855V31.6612C89.67 31.5073 89.6012 31.4305 89.4797 31.4305C89.3663 31.4709 89.3096 31.5479 89.3096 31.6612ZM78.2179 31.5397C78.1774 31.6693 78.1572 31.7382 78.1572 31.7463H78.303L78.2422 31.5397H78.2179ZM85.8108 34.419H89.7226V34.7106H85.8108V34.419ZM90.1236 17.2894H94.0111C94.4404 18.8525 95.3232 21.9829 96.6595 26.6803H98.1905C98.2303 26.6803 98.397 26.1174 98.6881 24.9917C99.3363 22.7805 100.062 20.2131 100.863 17.2894H104.459V28.5876H104.666V30.6529H103.572V31.0295H104.666V34.7106H101.604V33.362H101.981V29.1829H101.337V27.0933H100.949L100.924 27.2026H100.595V30.1791H99.5391V31.5641H98.6272V33.9209H96.4773V32.4145H95.1531V30.3492H94.3634V28.2111H93.914C93.8978 28.0895 93.8005 27.7169 93.6224 27.0933H96.7082L96.6231 26.6803H93.5373L93.6224 27.0933H93.2093V29.7903H93.4159V32.7668H92.6505V33.3013H93.4159V34.0909H90.6459V30.5071H90.1236V17.2894ZM93.185 25.4411V25.6476C93.185 25.8259 93.1932 26.17 93.2093 26.6803H93.5008C93.3065 25.8947 93.2093 25.4817 93.2093 25.4411H93.185ZM101.337 25.4654L101.069 26.6803H101.337C101.353 26.1782 101.362 25.8137 101.362 25.5869V25.4654H101.337ZM92.2131 26.6803V27.0933H93.185V26.6803H92.2131ZM98.239 26.6803L98.1532 27.0933H100.924C101.004 26.8746 101.046 26.737 101.046 26.6803H98.239ZM101.362 26.6803V27.0933H103.488V26.6803H101.362ZM96.7689 27.0933C96.9066 27.7169 96.9956 28.0288 97.0361 28.0288H97.3884V29.5838H97.9467V27.1784H98.0935V27.0933H96.7689ZM104.666 30.6529H106.427V31.0295H104.666V30.6529ZM104.836 31.1753H104.982V31.4425H105.224V31.236C105.224 31.1956 105.244 31.1753 105.285 31.1753H105.334C105.375 31.1834 105.395 31.2037 105.395 31.236V31.7948C105.395 31.8354 105.375 31.8557 105.334 31.8557H105.224V31.5883H104.982V31.8557H104.836V31.1753ZM104.836 32.0622H105.249C105.289 32.0703 105.309 32.0905 105.309 32.1229V32.208H104.982V32.3294H105.249V32.4752H104.982V32.7424H104.836V32.0622ZM104.872 32.949H105.285C105.318 32.949 105.334 32.9652 105.334 32.9975V33.0584L105.018 33.4714H105.334V33.6172H104.836C104.795 33.6172 104.775 33.5888 104.775 33.5321C104.84 33.4349 104.949 33.2891 105.102 33.0947H104.811V32.9975C104.82 32.9652 104.84 32.949 104.872 32.949ZM104.836 33.8237H104.982V34.2125L105.018 34.3583H105.163C105.204 34.3583 105.224 34.338 105.224 34.2974V33.8844C105.224 33.844 105.244 33.8237 105.285 33.8237H105.334C105.375 33.8318 105.395 33.8521 105.395 33.8844V34.2367C105.395 34.4149 105.305 34.5041 105.127 34.5041H105.079C104.965 34.5041 104.885 34.4554 104.836 34.3583V33.8237ZM89.8563 34.2367H92.9785V34.5041H89.8563V34.2367ZM119.293 17.3015C121.722 17.3015 123.253 18.0588 123.885 19.5733C124.062 19.9459 124.152 20.193 124.152 20.3144H122.621V20.776H124.261V20.7518C124.261 20.6708 124.225 20.525 124.152 20.3144H126.958V20.776H124.298V20.8125C124.436 21.4604 124.533 22.161 124.589 22.9143C124.589 22.9547 123.524 23.0317 121.394 23.145V23.1208C121.394 21.1851 120.73 20.2172 119.402 20.2172H119.061C118.065 20.2172 117.458 20.6383 117.239 21.4807C117.061 22.1934 116.971 23.1289 116.971 24.287V26.656L116.948 27.0083H115.842V27.5672H116.948V31.7828H121.637V27.3971H124.322V31.7828H122.827V34.4797H119.706V34.7106H117.276V34.4797H114.809V33.1312H116.45V32.5481H113.996V30.5557H112.938V28.1017H113.497C113.473 27.0812 113.461 26.2793 113.461 25.6963C113.461 23.0479 113.59 21.3794 113.85 20.6909C114.084 19.8973 114.474 19.2129 115.016 18.6379C115.98 17.747 117.406 17.3015 119.293 17.3015ZM117.178 30.908H117.325V31.5154H117.677V31.6977H117.178C117.146 31.6977 117.129 31.6774 117.129 31.637V30.9688C117.129 30.9282 117.146 30.908 117.178 30.908ZM120.835 30.908H121.017C121.115 30.989 121.164 31.066 121.164 31.1389C121.18 31.1389 121.248 31.0619 121.37 30.908H121.516V30.9688C121.378 31.1469 121.309 31.2725 121.309 31.3454C121.333 31.3454 121.41 31.4506 121.54 31.6612V31.6977H121.37L121.164 31.4669C121.09 31.6045 121.033 31.6815 120.993 31.6977H120.811C120.852 31.6167 120.941 31.479 121.078 31.2847L120.835 30.9323V30.908ZM123.24 31.9649C123.435 32.0135 123.532 32.0703 123.532 32.1351V32.2565H123.411L123.301 32.1351H123.18C123.139 32.1432 123.119 32.1634 123.119 32.1958V32.2565C123.419 32.3132 123.569 32.378 123.569 32.4509V32.5481C123.569 32.702 123.48 32.7788 123.301 32.7788H123.18C123.075 32.7788 122.99 32.7222 122.925 32.6088V32.4874H123.095C123.095 32.5845 123.152 32.6332 123.265 32.6332H123.301C123.326 32.6332 123.355 32.6048 123.387 32.5481C123.387 32.5238 123.249 32.4549 122.974 32.3416L122.949 32.2809V32.1351C122.949 32.0703 123.046 32.0135 123.24 31.9649ZM125.816 17.3379H131.769C133.762 17.3379 135.05 18.0386 135.632 19.4397C135.883 20.1605 136.009 20.9867 136.009 21.9181V22.6469C136.009 24.3316 135.641 25.6153 134.903 26.498H133.64V27.1419H135.572V31.2967H134.43V31.9406H136.154V34.3947H132.534V30.4707H131.137V27.9316H128.708V32.2322H129.23V34.7106H125.877C125.836 34.7106 125.816 34.6903 125.816 34.6497V27.6765H127.311V27.1784H125.816V17.3379ZM129.23 20.1686V25.0766H130.056C131.295 25.0766 132.012 24.9592 132.207 24.7243C132.409 24.5948 132.567 24.3316 132.68 23.9347H133.969V23.3151H132.802V23.3759C132.737 23.7484 132.688 23.9347 132.656 23.9347H130.992V23.3151H132.741C132.782 23.3151 132.802 23.2989 132.802 23.2666C132.818 22.7644 132.827 22.4808 132.827 22.4162C132.827 21.3309 132.64 20.6667 132.267 20.4237C131.976 20.2537 131.441 20.1686 130.663 20.1686H129.23ZM128.853 28.0773H128.999C129.081 28.1179 129.121 28.1786 129.121 28.2596C129.153 28.2596 129.189 28.1989 129.23 28.0773H129.412V28.1138L129.23 28.3689C129.23 28.3851 129.299 28.4944 129.437 28.697V28.7212H129.291C129.275 28.7212 129.218 28.6524 129.121 28.5147C129.063 28.6443 129.015 28.7131 128.975 28.7212H128.83C128.959 28.5188 129.024 28.4014 129.024 28.3689L128.853 28.0773ZM128.878 28.9521H129.412V29.0493L129.085 29.4502H129.412V29.596H128.853V29.4867L129.169 29.0735H128.878V28.9521ZM136.799 17.2894H140.151V26.498H138.573V26.9961H140.151V28.7092C140.151 30.2804 140.431 31.1996 140.99 31.4669C141.273 31.637 141.625 31.7219 142.047 31.7219H143.08V28.6848H144.003V17.2894H147.332V27.9924H146.129V28.7699H147.332C147.316 29.029 147.307 29.2193 147.307 29.3409V32.7546H145.558V34.7106H137.77V32.3051H137.054V25.101H136.799V17.2894ZM140.151 26.498H142.047V26.9961H140.151V26.498ZM145.728 32.9004H145.838C145.886 32.9004 145.935 33.034 145.983 33.3013H146.007C146.088 33.0665 146.129 32.9327 146.129 32.9004H146.299C146.177 33.3459 146.093 33.5685 146.044 33.5685H145.958C145.919 33.5685 145.841 33.3459 145.728 32.9004ZM153.831 17.3501C155.759 17.3501 157.05 17.9697 157.707 19.2088C158.16 20.1483 158.386 21.0676 158.386 21.9666H158.363C157.043 22.08 156.139 22.1367 155.653 22.1367C155.653 21.4968 155.455 20.9583 155.058 20.5209C154.685 20.3104 154.341 20.205 154.026 20.205H153.539C152.713 20.205 152.211 20.525 152.033 21.1648C151.992 21.351 151.972 21.4968 151.972 21.6022V21.8572C151.972 22.7644 152.45 23.4205 153.406 23.8254C153.487 23.8983 154.152 24.2019 155.398 24.7365C156.062 25.0443 156.678 25.4249 157.244 25.8785V25.9028H154.195V26.2429H158.217V26.7289H158.727V32.0013H157.731V34.7106H150.004V32.0013H148.181V30.1791H149.214V29.5474H148.181V29.1222H151.717V32.0013H155.337V27.6643H152.629V26.2429H149.263V25.9028H150.891V25.8785C149.465 24.9309 148.752 23.5905 148.752 21.8572V21.6265C148.752 20.1767 149.198 19.0752 150.09 18.322C150.9 17.6741 152.146 17.3501 153.831 17.3501ZM158.217 25.9028H159.444V26.2429H158.217V25.9028ZM147.016 29.5474H148.181V30.1791H147.016V29.5474ZM154.803 29.5474H155.168C155.208 29.5555 155.228 29.5757 155.228 29.6081V29.6932H154.912V29.8025H155.192V29.8875C155.192 29.9281 155.175 29.9483 155.143 29.9483H154.912V30.0697H155.228V30.1548C155.228 30.1872 155.208 30.2034 155.168 30.2034H154.803C154.762 30.2034 154.742 30.1872 154.742 30.1548V29.6081C154.75 29.5677 154.771 29.5474 154.803 29.5474ZM154.657 30.4099H154.766C154.782 30.4099 154.852 30.4828 154.973 30.6286C155.03 30.4828 155.075 30.4099 155.107 30.4099H155.192C155.233 30.4099 155.252 30.4262 155.252 30.4585C155.082 30.6529 154.997 30.8553 154.997 31.066H154.912C154.872 31.066 154.843 30.9525 154.827 30.7258C154.714 30.572 154.657 30.4666 154.657 30.4099ZM154.572 31.2603H154.681C154.73 31.2603 154.779 31.3859 154.827 31.637H154.888C154.937 31.3859 154.981 31.2603 155.021 31.2603H155.143C155.175 31.2685 155.192 31.2886 155.192 31.3211V31.8557C155.192 31.8961 155.175 31.9164 155.143 31.9164H155.058V31.5519H155.021L154.912 31.9164H154.827C154.787 31.9164 154.739 31.7948 154.681 31.5519H154.657V31.9164H154.572C154.531 31.9164 154.511 31.8961 154.511 31.8557V31.3211C154.52 31.2805 154.54 31.2603 154.572 31.2603ZM157.901 32.1471H158.192C158.346 32.1471 158.424 32.2241 158.424 32.378C158.382 32.378 158.363 32.3942 158.363 32.4265C158.419 32.4994 158.447 32.5684 158.447 32.6332C158.399 32.7465 158.294 32.8032 158.131 32.8032H157.962C157.921 32.8032 157.901 32.7829 157.901 32.7424V32.1471ZM158.071 32.2929V32.4023H158.192C158.224 32.4023 158.241 32.382 158.241 32.3416V32.2929H158.071ZM158.071 32.5116V32.6574H158.217C158.257 32.6574 158.278 32.6372 158.278 32.5967V32.5723C158.278 32.5319 158.257 32.5116 158.217 32.5116H158.071ZM157.901 32.9975H158.022C158.063 32.9975 158.147 33.1312 158.278 33.3985H158.302V32.9975H158.447V33.5928C158.447 33.6334 158.427 33.6536 158.386 33.6536H158.326C158.31 33.6536 158.217 33.5321 158.047 33.2891V33.5928C158.047 33.6334 158.027 33.6536 157.986 33.6536H157.962C157.921 33.6536 157.901 33.6334 157.901 33.5928V32.9975ZM160.282 17.3015H163.732V24.2384H167.219V17.3015H170.147V27.1906H168.944V27.6279H170.147V34.7106H167.28C167.239 34.7106 167.219 34.6903 167.219 34.6497V27.1297H163.732V34.6497C163.732 34.6903 163.712 34.7106 163.671 34.7106H160.78V25.6356H160.282V17.3015ZM170.147 27.1906H171.69V27.6279H170.147V27.1906Z" fill="url(#paint3_linear_17_8098)"/>
<defs>
<linearGradient id="paint0_linear_17_8098" x1="13.6456" y1="26.005" x2="37.0681" y2="26.0049" gradientUnits="userSpaceOnUse">
<stop offset="0.318174" stop-color="#997D00"/>
<stop offset="1" stop-color="#FBCD02"/>
</linearGradient>
<linearGradient id="paint1_linear_17_8098" x1="24.471" y1="35.6714" x2="44.2033" y2="35.6714" gradientUnits="userSpaceOnUse">
<stop offset="0.318174" stop-color="#997D00"/>
<stop offset="1" stop-color="#FBCD02"/>
</linearGradient>
<linearGradient id="paint2_linear_17_8098" x1="24.3982" y1="16.3337" x2="44.1997" y2="16.3337" gradientUnits="userSpaceOnUse">
<stop offset="0.318174" stop-color="#997D00"/>
<stop offset="1" stop-color="#FBCD02"/>
</linearGradient>
<linearGradient id="paint3_linear_17_8098" x1="54.4066" y1="25.3742" x2="173.084" y2="25.3742" gradientUnits="userSpaceOnUse">
<stop stop-color="#FFD311"/>
<stop offset="1" stop-color="#FFD000"/>
</linearGradient>
</defs>
</svg>
