<?xml version="1.0" encoding="UTF-8" standalone="no"?><!DOCTYPE svg PUBLIC "-//W3C//DTD SVG 1.1//EN" "http://www.w3.org/Graphics/SVG/1.1/DTD/svg11.dtd"><svg width="100%" height="100%" viewBox="0 0 720 720" version="1.1" xmlns="http://www.w3.org/2000/svg" xmlns:xlink="http://www.w3.org/1999/xlink" xml:space="preserve" xmlns:serif="http://www.serif.com/" style="fill-rule:evenodd;clip-rule:evenodd;stroke-linejoin:round;stroke-miterlimit:2;"><path d="M343.327,582.896l-140.279,0c-38.711,0 -70.139,-31.428 -70.139,-70.139l0,-194.021c0,-5.509 0.636,-10.87 1.84,-16.014c7.253,-31.005 35.097,-54.125 68.3,-54.125l211.917,0.428l85.314,181.171l-0,-181.599l86.812,-0l0,334.586l-85.397,0l-88.228,-187.358l0,116.933c0,38.711 -31.428,70.139 -70.139,70.139Zm-18.24,-106.83l0,-141.957l-25.299,-0.013c-0.142,-0.002 -0.284,-0.003 -0.427,-0.003l-52.347,0c-14.446,0 -26.174,11.728 -26.174,26.174l0,110.958c0,14.446 11.728,26.174 26.174,26.174l52.347,0c12.792,0 23.452,-9.196 25.726,-21.332Zm44.517,-339.249c24.287,0 44.005,19.718 44.005,44.005c0,24.287 -19.718,44.005 -44.005,44.005c-24.287,0 -44.005,-19.718 -44.005,-44.005c0,-24.287 19.718,-44.005 44.005,-44.005Z" style="fill:#490c35;"/></svg>